<svg width="765" height="503" viewBox="0 0 765 503" fill="none" xmlns="http://www.w3.org/2000/svg">
<path d="M361.75 502.816C554.169 502.816 710.155 492.565 710.155 479.919C710.155 467.274 554.169 457.023 361.75 457.023C169.332 457.023 13.3457 467.274 13.3457 479.919C13.3457 492.565 169.332 502.816 361.75 502.816Z" fill="white" fill-opacity="0.2"/>
<path d="M690.275 452.204H480.894L522.642 251.924H679.212L690.275 452.204Z" fill="#054C73"/>
<path d="M690.276 452.204H671.917L661.614 251.924H679.212L690.276 452.204Z" fill="#333333"/>
<path d="M0 452.204L90.4462 451.862L180.875 451.734L361.75 451.491L542.626 451.734L633.055 451.862L723.501 452.204L633.055 452.561L542.626 452.675L361.75 452.917L180.875 452.675L90.4462 452.561L0 452.204Z" fill="#054C73"/>
<path d="M722.91 201.344H551.111V291.733H722.91V201.344Z" fill="#166B9A"/>
<path d="M724 292.631H550.022V200.447H724V292.631ZM552.201 290.835H721.908V202.243H552.201V290.835Z" fill="#EBEBEB"/>
<path d="M722.91 201.344H551.111V218.438H722.91V201.344Z" fill="#F2F2F2"/>
<path d="M724 219.337H550.022V200.447H724V219.337ZM552.201 217.54H721.908V202.243H552.201V217.54Z" fill="#EBEBEB"/>
<path d="M570.576 210.013C570.576 210.859 570.272 211.686 569.702 212.389C569.133 213.092 568.323 213.641 567.375 213.964C566.427 214.288 565.385 214.373 564.379 214.208C563.372 214.043 562.448 213.635 561.723 213.037C560.998 212.439 560.504 211.677 560.304 210.847C560.104 210.018 560.206 209.158 560.599 208.376C560.991 207.595 561.656 206.927 562.509 206.457C563.362 205.987 564.365 205.736 565.39 205.736C566.766 205.736 568.085 206.186 569.057 206.989C570.03 207.791 570.576 208.879 570.576 210.013V210.013Z" fill="#A6A6A6"/>
<path d="M591.874 210.013C591.874 210.859 591.57 211.686 591 212.389C590.43 213.092 589.62 213.641 588.673 213.964C587.725 214.288 586.682 214.373 585.676 214.208C584.67 214.043 583.746 213.635 583.021 213.037C582.296 212.439 581.802 211.677 581.602 210.847C581.401 210.018 581.504 209.158 581.897 208.376C582.289 207.595 582.954 206.927 583.807 206.457C584.66 205.987 585.662 205.736 586.688 205.736C588.064 205.736 589.383 206.186 590.355 206.989C591.328 207.791 591.874 208.879 591.874 210.013V210.013Z" fill="#EBEBEB"/>
<path d="M613.172 210.013C613.172 210.859 612.868 211.686 612.298 212.389C611.728 213.092 610.918 213.641 609.971 213.964C609.023 214.288 607.98 214.373 606.974 214.208C605.968 214.043 605.044 213.635 604.319 213.037C603.594 212.439 603.1 211.677 602.899 210.847C602.699 210.018 602.802 209.158 603.195 208.376C603.587 207.595 604.252 206.927 605.105 206.457C605.958 205.987 606.96 205.736 607.986 205.736C609.361 205.736 610.681 206.186 611.653 206.989C612.626 207.791 613.172 208.879 613.172 210.013V210.013Z" fill="white"/>
<path d="M583.196 252.242C583.309 247.672 585.59 243.321 589.55 240.122C593.509 236.924 598.831 235.133 604.373 235.134C609.199 235.104 613.898 236.409 617.719 238.84C618.371 239.303 618.791 239.949 618.896 240.653C619.002 241.357 618.785 242.068 618.289 242.647C617.738 243.194 616.959 243.551 616.105 243.648C615.251 243.746 614.384 243.577 613.674 243.174C611.046 241.406 607.747 240.457 604.356 240.494C600.497 240.52 596.792 241.747 593.983 243.93C591.302 246.121 589.785 249.1 589.765 252.213C589.765 253.756 590.137 255.283 590.862 256.706C591.586 258.128 592.647 259.417 593.983 260.496C596.793 262.676 600.499 263.898 604.356 263.918C607.732 263.965 611.022 263.037 613.656 261.295C614.367 260.892 615.234 260.723 616.088 260.821C616.942 260.919 617.721 261.276 618.272 261.822C618.768 262.402 618.984 263.113 618.879 263.816C618.773 264.52 618.354 265.167 617.701 265.629C613.882 268.064 609.183 269.374 604.356 269.35C598.811 269.362 593.483 267.574 589.524 264.373C585.565 261.171 583.292 256.814 583.196 252.242V252.242Z" fill="#EBEBEB"/>
<path d="M638.55 255.236H630.286C629.85 255.262 629.412 255.214 628.999 255.095C628.586 254.975 628.208 254.787 627.887 254.541C627.567 254.296 627.311 253.998 627.136 253.668C626.961 253.337 626.871 252.98 626.871 252.619C626.871 252.259 626.961 251.902 627.136 251.571C627.311 251.24 627.567 250.943 627.887 250.697C628.208 250.452 628.586 250.263 628.999 250.144C629.412 250.025 629.85 249.977 630.286 250.003H638.48V243.345C638.48 242.627 638.826 241.938 639.442 241.43C640.058 240.922 640.894 240.636 641.765 240.636C642.636 240.636 643.471 240.922 644.087 241.43C644.703 241.938 645.049 242.627 645.049 243.345V249.96H653.261C654.062 250.009 654.811 250.306 655.357 250.791C655.904 251.277 656.207 251.914 656.207 252.577C656.207 253.239 655.904 253.877 655.357 254.362C654.811 254.847 654.062 255.144 653.261 255.193H645.049V261.879C645.049 262.598 644.703 263.287 644.087 263.795C643.471 264.303 642.636 264.588 641.765 264.588C640.894 264.588 640.058 264.303 639.442 263.795C638.826 263.287 638.48 262.598 638.48 261.879L638.55 255.236Z" fill="#EBEBEB"/>
<path d="M674.334 255.236H666.14C665.704 255.262 665.266 255.214 664.853 255.095C664.44 254.976 664.062 254.787 663.741 254.542C663.421 254.296 663.165 253.999 662.99 253.668C662.815 253.337 662.725 252.98 662.725 252.62C662.725 252.259 662.815 251.902 662.99 251.571C663.165 251.241 663.421 250.943 663.741 250.698C664.062 250.452 664.44 250.264 664.853 250.144C665.266 250.025 665.704 249.977 666.14 250.004H674.334V243.346C674.327 242.988 674.407 242.632 674.57 242.3C674.732 241.968 674.974 241.666 675.28 241.412C675.586 241.158 675.951 240.958 676.352 240.822C676.754 240.687 677.185 240.619 677.619 240.622C678.495 240.622 679.334 240.909 679.954 241.42C680.573 241.931 680.921 242.623 680.921 243.346V249.961H689.063C689.864 250.01 690.613 250.306 691.159 250.792C691.706 251.277 692.009 251.915 692.009 252.577C692.009 253.239 691.706 253.877 691.159 254.362C690.613 254.847 689.864 255.144 689.063 255.193H680.869V261.879C680.869 262.237 680.783 262.591 680.618 262.922C680.452 263.252 680.208 263.552 679.902 263.805C679.595 264.058 679.231 264.258 678.831 264.395C678.43 264.532 678.001 264.603 677.567 264.603C677.133 264.606 676.702 264.538 676.301 264.403C675.899 264.267 675.534 264.066 675.228 263.813C674.922 263.559 674.68 263.257 674.518 262.925C674.356 262.593 674.276 262.237 674.283 261.879L674.334 255.236Z" fill="#EBEBEB"/>
<path d="M643.058 28.1182L356.542 28.1182V222.168H643.058V28.1182Z" fill="#333333"/>
<path d="M643.874 222.645H355.179V26.7983L643.874 26.7983V222.645ZM357.357 220.848H641.696V28.5804L357.357 28.5804V220.848Z" fill="#EBEBEB"/>
<path d="M642.785 27.6821L356.268 27.6821V44.7761L642.785 44.7761V27.6821Z" fill="#CCCCCC"/>
<path d="M643.874 45.6744L355.179 45.6744V26.7983L643.874 26.7983V45.6744ZM357.357 43.878L641.696 43.878V28.5804L357.357 28.5804V43.878Z" fill="#EBEBEB"/>
<path d="M375.716 36.3645C375.716 37.2104 375.411 38.0373 374.842 38.7407C374.272 39.444 373.462 39.9922 372.514 40.3159C371.566 40.6397 370.524 40.7244 369.518 40.5593C368.512 40.3943 367.588 39.987 366.862 39.3888C366.137 38.7906 365.643 38.0285 365.443 37.1989C365.243 36.3692 365.346 35.5092 365.738 34.7277C366.131 33.9462 366.795 33.2782 367.648 32.8082C368.501 32.3382 369.504 32.0874 370.529 32.0874C371.905 32.0874 373.224 32.538 374.197 33.3401C375.169 34.1422 375.716 35.2301 375.716 36.3645Z" fill="#999999"/>
<path d="M397.013 36.3645C397.013 37.2104 396.709 38.0373 396.139 38.7407C395.57 39.444 394.76 39.9922 393.812 40.3159C392.864 40.6397 391.822 40.7244 390.816 40.5593C389.809 40.3943 388.885 39.987 388.16 39.3888C387.435 38.7906 386.941 38.0285 386.741 37.1989C386.541 36.3692 386.643 35.5092 387.036 34.7277C387.428 33.9462 388.093 33.2782 388.946 32.8082C389.799 32.3382 390.802 32.0874 391.827 32.0874C393.203 32.0874 394.522 32.538 395.494 33.3401C396.467 34.1422 397.013 35.2301 397.013 36.3645Z" fill="#E6E6E6"/>
<path d="M418.328 36.3645C418.328 37.2104 418.024 38.0373 417.454 38.7407C416.884 39.444 416.074 39.9922 415.127 40.3159C414.179 40.6397 413.136 40.7244 412.13 40.5593C411.124 40.3943 410.2 39.987 409.475 39.3888C408.75 38.7906 408.256 38.0285 408.056 37.1989C407.856 36.3692 407.958 35.5092 408.351 34.7277C408.743 33.9462 409.408 33.2782 410.261 32.8082C411.114 32.3382 412.116 32.0874 413.142 32.0874C414.518 32.0874 415.837 32.538 416.809 33.3401C417.782 34.1422 418.328 35.2301 418.328 36.3645Z" fill="white"/>
<path d="M389.58 78.7788H378.499V82.1149H389.58V78.7788Z" fill="#E6E6E6"/>
<path d="M524.765 78.7788H397.653V82.1149H524.765V78.7788Z" fill="#E6E6E6"/>
<path d="M552.616 78.7788H531.577V82.1149H552.616V78.7788Z" fill="#2196F3"/>
<path d="M600.759 123.445H579.704V126.781H600.759V123.445Z" fill="#E6E6E6"/>
<path d="M593.86 79.2151H557.47V82.5512H593.86V79.2151Z" fill="#999999"/>
<path d="M400.661 87.7178H389.58V91.0539H400.661V87.7178Z" fill="#E6E6E6"/>
<path d="M492.141 88.1541H408.731V91.4901H492.141V88.1541Z" fill="#999999"/>
<path d="M574.981 123.881H526.145V127.217H574.981V123.881Z" fill="#999999"/>
<path d="M477.329 114.521H397.653V117.857H477.329V114.521Z" fill="#A6A6A6"/>
<path d="M464.347 96.6426H408.458V99.9787H464.347V96.6426Z" fill="#2196F3"/>
<path d="M567.237 106.018H545.922V109.354H567.237V106.018Z" fill="#999999"/>
<path d="M560.08 97.0786H470.826V100.415H560.08V97.0786Z" fill="#999999"/>
<path d="M504.194 123.445H397.653V126.781H504.194V123.445Z" fill="#2196F3"/>
<path d="M612.584 87.7178H554.845V91.0539H612.584V87.7178Z" fill="#2196F3"/>
<path d="M550.264 87.7178H497.106V91.0539H550.264V87.7178Z" fill="#E6E6E6"/>
<path d="M599.879 96.6426H564.008V99.9787H599.879V96.6426Z" fill="#E6E6E6"/>
<path d="M400.661 96.6426H389.58V99.9787H400.661V96.6426Z" fill="#E6E6E6"/>
<path d="M389.854 106.018H378.772V109.354H389.854V106.018Z" fill="#999999"/>
<path d="M463.137 105.582H397.653V108.918H463.137V105.582Z" fill="#E6E6E6"/>
<path d="M473.941 132.384H408.458V135.72H473.941V132.384Z" fill="#E6E6E6"/>
<path d="M580.362 141.323H530.575V144.66H580.362V141.323Z" fill="#2196F3"/>
<path d="M544.94 132.384H479.266V135.72H544.94V132.384Z" fill="#2196F3"/>
<path d="M524.852 141.323H467.683V144.659H524.852V141.323Z" fill="#E6E6E6"/>
<path d="M427.695 141.76H408.731V145.096H427.695V141.76Z" fill="#999999"/>
<path d="M552.615 114.521H481.842V117.857H552.615V114.521Z" fill="#E6E6E6"/>
<path d="M602.229 114.521H557.196V117.857H602.229V114.521Z" fill="#2196F3"/>
<path d="M540.48 105.582H469.792V108.918H540.48V105.582Z" fill="#2196F3"/>
<path d="M389.58 114.521H378.499V117.857H389.58V114.521Z" fill="#E6E6E6"/>
<path d="M389.58 123.445H378.499V126.781H389.58V123.445Z" fill="#E6E6E6"/>
<path d="M400.935 132.821H389.854V136.157H400.935V132.821Z" fill="#999999"/>
<path d="M400.661 141.323H389.58V144.66H400.661V141.323Z" fill="#E6E6E6"/>
<path d="M389.58 148.794H378.499V152.13H389.58V148.794Z" fill="#E6E6E6"/>
<path d="M524.766 148.794H397.653V152.13H524.766V148.794Z" fill="#E6E6E6"/>
<path d="M400.661 157.733H389.58V161.069H400.661V157.733Z" fill="#E6E6E6"/>
<path d="M492.141 158.169H408.731V161.505H492.141V158.169Z" fill="#999999"/>
<path d="M477.603 184.972H397.926V188.308H477.603V184.972Z" fill="#999999"/>
<path d="M464.347 166.672H408.458V170.008H464.347V166.672Z" fill="#2196F3"/>
<path d="M560.08 167.108H470.826V170.444H560.08V167.108Z" fill="#999999"/>
<path d="M504.194 193.461H397.653V196.797H504.194V193.461Z" fill="#2196F3"/>
<path d="M612.584 157.733H554.845V161.069H612.584V157.733Z" fill="#2196F3"/>
<path d="M550.264 157.733H497.106V161.069H550.264V157.733Z" fill="#E6E6E6"/>
<path d="M599.879 166.672H564.008V170.008H599.879V166.672Z" fill="#E6E6E6"/>
<path d="M400.661 166.672H389.58V170.008H400.661V166.672Z" fill="#E6E6E6"/>
<path d="M389.854 176.033H378.772V179.369H389.854V176.033Z" fill="#999999"/>
<path d="M463.137 175.597H397.653V178.933H463.137V175.597Z" fill="#E6E6E6"/>
<path d="M552.615 184.536H481.842V187.872H552.615V184.536Z" fill="#E6E6E6"/>
<path d="M540.48 175.597H469.792V178.933H540.48V175.597Z" fill="#2196F3"/>
<path d="M389.58 184.536H378.499V187.872H389.58V184.536Z" fill="#E6E6E6"/>
<path d="M385.345 69.9966C385.526 70.1462 385.627 70.3487 385.627 70.5597C385.627 70.7708 385.526 70.9733 385.345 71.1229C385.162 71.2684 384.917 71.3496 384.662 71.3496C384.408 71.3496 384.163 71.2684 383.979 71.1229L379.71 67.5444C379.7 67.5213 379.7 67.4963 379.71 67.4731C379.703 67.4401 379.703 67.4064 379.71 67.3733V67.3733C379.703 67.3451 379.703 67.316 379.71 67.2878C379.71 67.2878 379.71 67.2878 379.71 67.2878V67.2022C379.71 67.2022 379.71 67.2022 379.71 67.1167C379.71 67.0312 379.71 67.1167 379.71 67.1167V67.0312C379.702 66.9981 379.702 66.9644 379.71 66.9313C379.71 66.9313 379.71 66.8315 379.71 66.8173C379.71 66.803 379.71 66.8173 379.71 66.8173C379.73 66.7793 379.767 66.7489 379.813 66.7318L384.083 63.1533C384.267 63.0078 384.511 62.9265 384.766 62.9265C385.021 62.9265 385.265 63.0078 385.449 63.1533C385.629 63.3029 385.731 63.5054 385.731 63.7164C385.731 63.9275 385.629 64.13 385.449 64.2796L381.853 67.2735L385.345 69.9966Z" fill="#F2F2F2"/>
<path d="M389.217 70.3958L392.951 63.082C392.993 62.9987 393.054 62.923 393.132 62.8593C393.209 62.7956 393.301 62.7451 393.402 62.7107C393.504 62.6762 393.612 62.6586 393.721 62.6587C393.831 62.6588 393.939 62.6767 394.04 62.7113C394.141 62.746 394.233 62.7967 394.31 62.8605C394.387 62.9244 394.449 63.0003 394.49 63.0837C394.532 63.1671 394.554 63.2564 394.553 63.3466C394.553 63.4369 394.532 63.5262 394.49 63.6095L390.756 70.9375C390.688 71.0612 390.579 71.1662 390.441 71.2396C390.303 71.313 390.142 71.3517 389.978 71.351C389.881 71.3709 389.78 71.3709 389.684 71.351C389.57 71.3209 389.466 71.2706 389.379 71.2036C389.292 71.1367 389.224 71.0547 389.179 70.9635C389.134 70.8724 389.115 70.7743 389.121 70.6762C389.128 70.578 389.161 70.4823 389.217 70.3958Z" fill="#F2F2F2"/>
<path d="M401.836 67.4444C401.811 67.4797 401.775 67.5091 401.732 67.5299L397.462 71.1084C397.273 71.2513 397.027 71.3324 396.771 71.3365C396.519 71.3344 396.278 71.2527 396.097 71.1084C395.916 70.9588 395.815 70.7563 395.815 70.5453C395.815 70.3342 395.916 70.1317 396.097 69.9821L399.693 66.9739L396.097 63.98C395.916 63.8304 395.815 63.6279 395.815 63.4168C395.815 63.2058 395.916 63.0033 396.097 62.8537C396.28 62.7082 396.525 62.627 396.78 62.627C397.034 62.627 397.279 62.7082 397.462 62.8537L401.732 66.4322C401.778 66.4493 401.815 66.4797 401.836 66.5177C401.871 66.5523 401.9 66.5907 401.923 66.6318C401.915 66.6696 401.915 66.708 401.923 66.7458V66.8314V67.0024C401.918 67.0404 401.918 67.0786 401.923 67.1165L401.836 67.4444Z" fill="#F2F2F2"/>
<path d="M675.457 0.47998L558.423 0.47998V36.2219H675.457V0.47998Z" fill="#054C73"/>
<path d="M362.716 137.004H266.271V172.746H362.716V137.004Z" fill="#054C73"/>
<path d="M647.003 134.68L654.315 149.25L647.003 151.745L639.656 137.075L627.572 144.802V103.757L662.423 132.784L647.003 134.68Z" fill="#04519B"/>
<path d="M627.572 99.3515C627.266 98.6918 627.113 97.9905 627.122 97.2843C627.103 96.5773 627.256 95.8744 627.572 95.217C627.882 95.8753 628.029 96.5783 628.004 97.2843C628.019 97.9897 627.873 98.6911 627.572 99.3515V99.3515Z" fill="#263238"/>
<path d="M623.25 100.777C622.475 100.486 621.772 100.08 621.176 99.5793C620.553 99.093 620.058 98.5057 619.724 97.8542C620.503 98.1442 621.208 98.5557 621.798 99.0661C622.421 99.5472 622.915 100.13 623.25 100.777V100.777Z" fill="#263238"/>
<path d="M621.47 104.298C619.859 104.792 618.086 104.792 616.474 104.298C618.09 103.823 619.855 103.823 621.47 104.298V104.298Z" fill="#263238"/>
<path d="M623.25 107.905C622.915 108.552 622.421 109.135 621.798 109.616C621.208 110.126 620.503 110.538 619.724 110.828C620.058 110.177 620.553 109.589 621.176 109.103C621.772 108.602 622.475 108.196 623.25 107.905Z" fill="#263238"/>
<path d="M633.744 104.298C635.365 103.823 637.136 103.823 638.757 104.298C637.14 104.793 635.361 104.793 633.744 104.298V104.298Z" fill="#263238"/>
<path d="M631.876 100.777C632.224 100.135 632.717 99.5547 633.329 99.0661C633.922 98.5522 634.633 98.1404 635.42 97.8542C634.687 99.1214 633.431 100.132 631.876 100.706V100.777Z" fill="#263238"/>
<path d="M568.685 9.47979H576.772C578.114 9.47979 579.356 9.78181 580.497 10.3859C581.638 10.9899 582.544 11.84 583.215 12.9363C583.909 14.0101 584.256 15.2294 584.256 16.5941C584.256 17.9588 583.909 19.1892 583.215 20.2855C582.544 21.3593 581.638 22.1983 580.497 22.8023C579.356 23.4064 578.114 23.7084 576.772 23.7084H571.504V33.5073H568.685V9.47979ZM576.839 20.9902C577.734 20.9902 578.517 20.7777 579.188 20.3526C579.882 19.9275 580.419 19.3794 580.799 18.7082C581.179 18.0371 581.37 17.3324 581.37 16.5941C581.37 15.8558 581.179 15.1511 580.799 14.4799C580.419 13.8088 579.882 13.2607 579.188 12.8356C578.517 12.4105 577.734 12.198 576.839 12.198H571.504V20.9902H576.839ZM592.684 32.4335L585.604 16.3927H588.691L594.06 29.1112H594.127L599.295 16.3927H602.383L591.812 40.7559H588.859L592.684 32.4335ZM611.33 33.7758C610.637 33.7758 609.988 33.6639 609.384 33.4402C608.802 33.2165 608.31 32.9145 607.907 32.5341C607.46 32.1091 607.124 31.6169 606.9 31.0576C606.677 30.4983 606.565 29.8159 606.565 29.0105V18.9767H603.578V16.3927H606.565V11.5604H609.417V16.3927H613.578V18.9767H609.417V28.3058C609.417 29.2455 609.596 29.939 609.954 30.3864C610.379 30.8786 610.994 31.1247 611.8 31.1247C612.449 31.1247 613.075 30.9345 613.679 30.5542V33.3395C613.344 33.4961 612.997 33.608 612.639 33.6751C612.303 33.7422 611.867 33.7758 611.33 33.7758ZM617.206 9.47979H620.058V16.5605L619.924 18.9096H620.058C620.528 18.0371 621.266 17.31 622.273 16.7283C623.302 16.1466 624.421 15.8558 625.629 15.8558C627.71 15.8558 629.298 16.471 630.394 17.7015C631.49 18.9096 632.038 20.5204 632.038 22.5339V33.5073H629.186V22.9701C629.186 21.4264 628.795 20.2855 628.012 19.5472C627.229 18.8089 626.211 18.4398 624.958 18.4398C624.063 18.4398 623.235 18.7082 622.474 19.2452C621.736 19.7821 621.143 20.4756 620.696 21.3258C620.271 22.1759 620.058 23.0596 620.058 23.9768V33.5073H617.206V9.47979ZM644.034 34.0443C642.356 34.0443 640.846 33.6416 639.504 32.8362C638.161 32.0308 637.11 30.9345 636.349 29.5475C635.611 28.1604 635.242 26.6279 635.242 24.95C635.242 23.2721 635.611 21.7396 636.349 20.3526C637.11 18.9655 638.161 17.8693 639.504 17.0639C640.846 16.2585 642.356 15.8558 644.034 15.8558C645.712 15.8558 647.222 16.2585 648.564 17.0639C649.907 17.8693 650.947 18.9655 651.685 20.3526C652.446 21.7396 652.826 23.2721 652.826 24.95C652.826 26.6279 652.446 28.1604 651.685 29.5475C650.947 30.9345 649.907 32.0308 648.564 32.8362C647.222 33.6416 645.712 34.0443 644.034 34.0443ZM644.034 31.4603C645.085 31.4603 646.059 31.203 646.953 30.6884C647.871 30.1515 648.598 29.3909 649.135 28.4065C649.694 27.4221 649.974 26.27 649.974 24.95C649.974 23.6301 649.694 22.4779 649.135 21.4936C648.598 20.5092 647.871 19.7597 646.953 19.2452C646.059 18.7082 645.085 18.4398 644.034 18.4398C642.982 18.4398 641.998 18.7082 641.081 19.2452C640.164 19.7597 639.425 20.5092 638.866 21.4936C638.329 22.4779 638.061 23.6301 638.061 24.95C638.061 26.27 638.329 27.4221 638.866 28.4065C639.425 29.3909 640.164 30.1515 641.081 30.6884C641.998 31.203 642.982 31.4603 644.034 31.4603ZM655.811 16.3927H658.529V18.9096H658.663C659.133 18.0595 659.882 17.3435 660.911 16.7619C661.941 16.1578 663.037 15.8558 664.2 15.8558C666.258 15.8558 667.824 16.4599 668.898 17.6679C669.995 18.8537 670.543 20.4756 670.543 22.5339V33.5073H667.69V22.9701C667.69 21.3817 667.31 20.2295 666.549 19.5136C665.789 18.7977 664.748 18.4398 663.428 18.4398C662.511 18.4398 661.683 18.6971 660.945 19.2116C660.229 19.7262 659.67 20.4085 659.267 21.2586C658.864 22.0864 658.663 22.9589 658.663 23.8762V33.5073H655.811V16.3927Z" fill="white"/>
<path d="M302.96 166.537C300.633 166.537 298.519 165.989 296.618 164.893C294.716 163.796 293.217 162.297 292.121 160.396C291.047 158.472 290.51 156.335 290.51 153.986C290.51 151.637 291.047 149.512 292.121 147.61C293.217 145.686 294.716 144.176 296.618 143.08C298.519 141.984 300.633 141.436 302.96 141.436C304.75 141.436 306.383 141.782 307.86 142.476C309.359 143.147 310.656 144.109 311.752 145.362L309.705 147.342C308.788 146.246 307.781 145.44 306.685 144.926C305.611 144.411 304.37 144.154 302.96 144.154C301.215 144.154 299.616 144.568 298.161 145.395C296.707 146.201 295.544 147.353 294.671 148.852C293.821 150.328 293.396 152.04 293.396 153.986C293.396 155.933 293.821 157.655 294.671 159.154C295.544 160.631 296.707 161.783 298.161 162.611C299.616 163.416 301.215 163.819 302.96 163.819C305.868 163.819 308.341 162.622 310.376 160.228L312.457 162.242C311.338 163.561 309.963 164.613 308.329 165.396C306.696 166.157 304.906 166.537 302.96 166.537ZM319.041 159.087H314.88L315.283 156.738H319.411L320.115 152.006H315.921L316.29 149.657H320.451L321.424 143.046H323.907L322.934 149.657H327.699L328.673 143.046H331.156L330.183 149.657H334.344L333.975 152.006H329.847L329.142 156.738H333.337L332.968 159.087H328.773L327.733 166H325.25L326.29 159.087H321.525L320.484 166H318.001L319.041 159.087ZM326.659 156.738L327.364 152.006H322.599L321.894 156.738H326.659Z" fill="white"/>
<path d="M505.627 453.883H518.039V447.196H505.627V453.883Z" fill="#808080"/>
<path d="M489.533 453.441H501.945V446.755H489.533V453.441Z" fill="#808080"/>
<path d="M473.42 452.999H485.833V446.313H473.42V452.999Z" fill="#808080"/>
<path d="M457.327 452.557H469.739V445.871H457.327V452.557Z" fill="#808080"/>
<path d="M441.214 452.115H453.626V445.429H441.214V452.115Z" fill="#808080"/>
<path d="M425.121 451.674H437.533V444.987H425.121V451.674Z" fill="#808080"/>
<path d="M409.704 451.231H422.116V444.545H409.704V451.231Z" fill="#808080"/>
<path d="M393.61 450.79H406.022V444.103H393.61V450.79Z" fill="#808080"/>
<path d="M377.498 450.347H389.91V443.661H377.498V450.347Z" fill="#808080"/>
<path d="M374.455 457.732H521.776V449.606L374.455 446.213V457.732Z" fill="#185AA7"/>
<path d="M230.678 425.654H473.873L435.202 276.328H191.989L230.678 425.654Z" fill="#054C73"/>
<path d="M221.671 425.654H464.884L426.195 276.328H183L221.671 425.654Z" fill="#166B9A"/>
<path d="M302.227 342.337C302.969 345.738 305.105 348.826 308.277 351.083C311.449 353.341 315.464 354.632 319.652 354.741C321.543 354.79 323.423 354.486 325.15 353.85C326.878 353.214 328.408 352.263 329.626 351.069C330.844 349.876 331.718 348.47 332.182 346.957C332.646 345.445 332.689 343.865 332.306 342.337C331.555 338.94 329.417 335.857 326.247 333.601C323.077 331.344 319.066 330.05 314.881 329.934C312.99 329.884 311.11 330.189 309.383 330.825C307.655 331.461 306.125 332.411 304.907 333.605C303.689 334.799 302.815 336.205 302.351 337.717C301.887 339.23 301.844 340.809 302.227 342.337Z" fill="#333333"/>
<path d="M290.457 464.647H410.067V456.991L290.457 453.797V464.647Z" fill="#4D4D4D"/>
<path d="M257.939 464.633H322.161L360.832 380.974H296.611L257.939 464.633Z" fill="#4D4D4D"/>
<path d="M247.359 464.633H311.581L350.27 380.974H286.048L247.359 464.633Z" fill="#054C73"/>
<path d="M526.322 466.686H649.649C660.176 466.686 644.947 441.979 606.535 432.469C568.123 422.96 514.135 457.419 526.322 466.686Z" fill="#0E3246"/>
<path d="M574.727 466.686C573.947 463.991 572.948 461.343 571.736 458.759C570.538 456.207 569.075 453.746 567.363 451.402C565.681 449.051 563.674 446.87 561.381 444.901L559.653 443.475L557.734 442.15C556.524 441.18 555.02 440.553 553.688 439.669C556.863 440.73 559.788 442.24 562.332 444.131C564.905 446.028 567.109 448.24 568.867 450.69C570.622 453.125 572.02 455.724 573.033 458.431C574.03 461.11 574.6 463.885 574.727 466.686V466.686Z" fill="#04519B"/>
<path d="M560.101 443.176C558.372 443.918 556.73 444.602 555.071 445.415C553.411 446.227 551.734 446.94 550.109 447.738C546.859 449.349 543.627 450.975 540.567 452.8C537.459 454.556 534.564 456.557 531.923 458.773C530.613 459.877 529.454 461.096 528.466 462.409C527.432 463.717 526.683 465.165 526.253 466.686C526.363 465.085 526.863 463.519 527.722 462.081C528.601 460.644 529.667 459.291 530.903 458.046C533.434 455.607 536.34 453.45 539.547 451.631C545.864 448.013 552.781 445.166 560.084 443.176H560.101Z" fill="#04519B"/>
<path d="M760.065 403.962L752.735 479.865H702.118L694.789 403.962H760.065Z" fill="#42A5F5"/>
<path opacity="0.1" d="M760.065 403.962L752.735 479.865H702.118L694.789 403.962H760.065Z" fill="white"/>
<path d="M764.421 397.118H690V408.182H764.421V397.118Z" fill="#054C73"/>
<path d="M759.322 397.118H695.1L698.851 384.687H755.571L759.322 397.118Z" fill="#333333"/>
<path d="M745.007 442.584C745.007 452.435 737.142 460.419 727.426 460.419C717.711 460.419 709.845 452.435 709.845 442.584C709.845 432.732 717.728 424.734 727.426 424.734C737.124 424.734 745.007 432.732 745.007 442.584Z" fill="white"/>
</svg>
